<?xml version="1.0" encoding="UTF-8"?><svg xmlns="http://www.w3.org/2000/svg" viewBox="0 0 24.84 24.84"><defs><style>.d{fill:#000032;}</style></defs><g id="a"/><g id="b"><g id="c"><g><g><line class="d" x1="1.08" y1="1.08" x2="23.77" y2="23.77"/><path class="d" d="M21,24.6L.24,3.84c-.53-.53-.16-1.77,.83-2.76h0C2.07,.08,3.31-.29,3.84,.24L24.6,21c.53,.53,.16,1.77-.83,2.76h0c-.99,.99-2.23,1.37-2.76,.83Z"/></g><g><line class="d" x1="1.08" y1="23.77" x2="23.77" y2="1.08"/><path class="d" d="M24.6,3.84L3.84,24.6c-.53,.53-1.77,.16-2.76-.83h0c-.99-.99-1.37-2.23-.83-2.76L21,.24c.53-.53,1.77-.16,2.76,.83h0c.99,.99,1.37,2.23,.83,2.76Z"/></g></g></g></g></svg>