<?xml version="1.0" encoding="UTF-8"?><svg xmlns="http://www.w3.org/2000/svg" viewBox="0 0 32.09 28.23"><defs><style>.d{fill:#060606;}</style></defs><g id="a"/><g id="b"><g id="c"><g><path class="d" d="M30.73,5.08H1.37C.61,5.08,0,3.95,0,2.54H0C0,1.14,.61,0,1.37,0H30.73c.75,0,1.37,1.14,1.37,2.54h0c0,1.4-.61,2.54-1.37,2.54Z"/><path class="d" d="M30.73,28.23H1.37C.61,28.23,0,27.09,0,25.69H0C0,24.28,.61,23.15,1.37,23.15H30.73c.75,0,1.37,1.14,1.37,2.54h0c0,1.4-.61,2.54-1.37,2.54Z"/><path class="d" d="M30.73,16.66H1.37C.61,16.66,0,15.52,0,14.12H0C0,12.71,.61,11.57,1.37,11.57H30.73c.75,0,1.37,1.14,1.37,2.54h0c0,1.4-.61,2.54-1.37,2.54Z"/></g></g></g></svg>