<?xml version="1.0" encoding="UTF-8"?><svg xmlns="http://www.w3.org/2000/svg" viewBox="0 0 73.86 65.79"><g id="a"/><g id="b"><g id="c"><path d="M68.49,7.09C63.76,1.55,57.62-.64,50.42,.27c-4.65,.59-8.42,2.95-11.58,6.35-.66,.72-1.26,1.49-1.91,2.25-.67-.79-1.27-1.57-1.94-2.28C29.28,.57,22.37-1.45,14.45,1.05,7.02,3.39,2.69,8.81,.75,16.22c-.37,1.41-.51,2.87-.75,4.31v3.32c.04,.16,.09,.32,.1,.49,.38,4.39,1.97,8.33,4.35,11.99,2.52,3.88,5.6,7.29,9.03,10.35,6.76,6.03,13.63,11.95,20.48,17.89,1.94,1.68,4.11,1.6,6.12-.14,5.25-4.52,10.5-9.03,15.73-13.57,4.43-3.86,8.73-7.85,12.25-12.59,2.69-3.61,4.75-7.53,5.44-12.03,1.09-7.1-.29-13.63-5.02-19.17Zm.82,18.08c-.57,4.1-2.47,7.59-4.93,10.83-3.14,4.14-6.91,7.68-10.81,11.08-5.38,4.69-10.81,9.34-16.21,14-.13,.11-.26,.21-.44,.35-3.28-2.82-6.54-5.56-9.73-8.37-4.23-3.74-8.47-7.48-12.59-11.34-3.02-2.83-5.74-5.98-7.67-9.68-3.73-7.15-3.68-14.26,.87-21.01C12.55,3.97,22.58,2.17,29.32,7.27c1.82,1.38,3.34,3.04,4.6,4.93,.15,.22,.31,.43,.43,.67,1.19,2.26,3.89,2.23,5.19,.04,.74-1.25,1.68-2.4,2.66-3.49,7.18-7.98,18.89-5.88,24.05,1.78,2.86,4.25,3.75,8.93,3.06,13.95Z"/></g></g></svg>