<?xml version="1.0" encoding="UTF-8"?><svg xmlns="http://www.w3.org/2000/svg" viewBox="0 0 41.96 73.75"><defs><style>.d{fill:#eddada;}</style></defs><g id="a"/><g id="b"><g id="c"><path class="d" d="M39.49,0h-13.25c-.18,.05-.36,.11-.54,.14-4.13,.68-7.72,2.4-10.53,5.56-3.02,3.38-4.38,7.44-4.61,11.89-.11,2.15-.05,4.32-.08,6.48,0,.25-.03,.51-.04,.81h-.94c-2.04,0-4.08-.03-6.12,.03-1.87,.06-3.33,1.51-3.35,3.37-.05,3.93-.04,7.87,0,11.8,.02,1.66,1.25,3,2.89,3.3,.42,.07,.86,.09,1.29,.09,2.06,0,4.12,0,6.27,0v.98c0,8.3,0,16.6,0,24.91,0,.34,0,.67,.03,1.01,.16,1.92,1.56,3.34,3.47,3.36,3.98,.04,7.97,.03,11.95,0,1.26,0,2.35-.54,2.93-1.66,.38-.73,.59-1.63,.59-2.46,.04-8.4,.03-16.8,.03-25.2v-.93c2.77,0,5.4,0,8.04,0,2.51,0,3.98-1.48,3.99-3.99,0-3.53,0-7.06,0-10.58,0-2.57-1.44-4.02-4-4.03-2.4,0-4.8,0-7.2,0-.25,0-.51-.02-.79-.03,0-1.77-.03-3.47,.01-5.17,.04-1.65,.33-1.92,1.97-1.96,2.11-.04,4.22-.04,6.33-.05,2.66-.01,4.1-1.44,4.1-4.09,0-3.09-.05-6.19,.02-9.29,.05-1.98-.63-3.44-2.46-4.29Zm-1.95,13.33c-.53,0-1.06-.01-1.58,0-1.94,.06-3.9-.01-5.81,.22-2.96,.36-4.64,2.06-4.86,5.06-.21,2.75-.16,5.51-.11,8.27,.03,1.48,1.08,2.31,2.66,2.32,2.83,.01,5.66,0,8.5,0h.81v9.94h-.78c-2.74,0-5.47,.07-8.21-.02-2.17-.07-3.04,1.23-3.03,3.01,.04,8.76,.02,17.52,.02,26.28v.95H14.82v-.91c0-8.74,0-17.47,0-26.21,0-.29,0-.58-.03-.86-.14-1.37-1.05-2.23-2.43-2.24-2.38-.02-4.75,0-7.13,0h-.84v-9.94h2.51c1.73,0,3.46,0,5.18,0,1.76-.01,2.71-.96,2.73-2.72,.03-2.9-.06-5.81,.07-8.71,.19-4,1.49-7.56,4.59-10.28,2.39-2.09,5.25-3.1,8.36-3.23,3.21-.13,6.43-.03,9.7-.03V13.33Z"/></g></g></svg>