<?xml version="1.0" encoding="UTF-8"?><svg xmlns="http://www.w3.org/2000/svg" viewBox="0 0 42.71 42.7"><g id="a"/><g id="b"><g id="c"><path d="M42.71,17.83c0-1.48-.57-2.67-1.73-3.58-5.59-4.4-11.18-8.79-16.78-13.19-1.81-1.42-3.88-1.41-5.68,0C12.91,5.46,7.31,9.87,1.7,14.27c-1.13,.89-1.7,2.06-1.7,3.5,0,3.42,0,6.85,0,10.28s0,6.76,0,10.14c0,2.67,1.83,4.5,4.49,4.5,2.7,0,5.4,0,8.09,0,2.67,0,4.49-1.83,4.5-4.5,0-2.24,0-4.48,0-6.72,0-1.02,.57-1.59,1.6-1.59,1.76,0,3.53,0,5.29,0,1.09,0,1.65,.55,1.65,1.64,0,2.22,0,4.45,0,6.67,0,2.67,1.83,4.5,4.49,4.51,2.7,0,5.4,0,8.09,0,2.67,0,4.5-1.83,4.5-4.5,0-6.79,0-13.58,0-20.37Zm-2.85,10.25c0,3.37,0,6.73,0,10.1,0,1.15-.54,1.68-1.69,1.68-2.68,0-5.37,0-8.05,0-1.08,0-1.64-.56-1.64-1.64,0-2.22,0-4.45,0-6.67,0-2.67-1.83-4.5-4.49-4.5-1.76,0-3.53,0-5.29,0-2.6,0-4.44,1.85-4.45,4.46,0,2.24,0,4.48,0,6.72,0,1.08-.56,1.64-1.65,1.64-2.7,0-5.4,0-8.09,0-1.08,0-1.65-.56-1.65-1.64,0-6.78,0-13.55,0-20.33,0-.62,.22-1.07,.7-1.45C9.1,12.07,14.66,7.7,20.22,3.33c.86-.67,1.42-.67,2.27,0,5.54,4.35,11.07,8.7,16.61,13.05,.53,.42,.77,.92,.77,1.6-.02,3.37,0,6.73,0,10.1Z"/></g></g></svg>