<?xml version="1.0" encoding="UTF-8"?><svg xmlns="http://www.w3.org/2000/svg" viewBox="0 0 73.9 73.92"><defs><style>.d{fill:#eddada;}</style></defs><g id="a"/><g id="b"><g id="c"><g><path class="d" d="M73.29,15.23c-2.26-8.06-7.5-13.01-15.67-14.86-.77-.18-1.56-.25-2.34-.37H18.63c-1.13,.2-2.29,.3-3.39,.61C7.2,2.87,2.23,8.09,.41,16.24c-.3,1.35-.37,2.77-.38,4.15-.03,11.04-.06,22.08,0,33.11,.04,7.86,3.51,13.84,10.28,17.83,3.02,1.78,6.36,2.54,9.87,2.54,11.18,0,22.37,.1,33.55-.03,8.63-.1,14.81-4.27,18.52-12.06,.86-1.81,1.31-3.76,1.52-5.76,.03-.26,.08-.51,.13-.77V18.61c-.2-1.13-.3-2.28-.61-3.38Zm-3.72,38.27c0,7.72-4.77,13.82-12.27,15.64-1.18,.29-2.43,.39-3.64,.4-11.13,.03-22.27,.03-33.4,.01-7.65-.01-13.86-4.96-15.54-12.41-.27-1.18-.34-2.43-.35-3.65-.04-5.53-.01-11.06-.01-16.59s-.06-11.06,.01-16.59c.09-6.73,3.19-11.63,9.26-14.58,2.04-.99,4.24-1.39,6.5-1.39,11.23,0,22.46-.03,33.69,0,7.56,.03,13.73,5.01,15.4,12.4,.27,1.18,.35,2.43,.35,3.65,.03,11.04,.02,22.07,.01,33.11Z"/><path class="d" d="M36.94,16.74c-11.11,.02-20.2,9.13-20.18,20.22,.02,11.11,9.13,20.2,20.22,20.18,11.11-.02,20.2-9.13,20.18-20.22-.02-11.11-9.13-20.2-20.22-20.18Zm.03,36.07c-8.72,.01-15.89-7.15-15.88-15.87,0-8.7,7.1-15.82,15.82-15.86,8.71-.05,15.89,7.1,15.92,15.84,.03,8.71-7.12,15.89-15.85,15.9Z"/><path class="d" d="M57.67,9.56c-3.21-.04-5.97,2.69-5.99,5.95-.02,3.25,2.68,5.97,5.94,5.99,3.24,.02,5.96-2.67,5.99-5.94,.04-3.22-2.67-5.95-5.94-6Zm.02,7.6c-.87,.03-1.68-.75-1.67-1.64,0-.86,.76-1.61,1.62-1.62,.86,0,1.62,.74,1.63,1.6,.02,.85-.72,1.62-1.58,1.65Z"/></g></g></g></svg>