<?xml version="1.0" encoding="UTF-8"?><svg id="Calque_2" xmlns="http://www.w3.org/2000/svg" viewBox="0 0 16.1 14.32"><defs><style>.cls-1{fill:#e00a13;}</style></defs><g id="Calque_1-2"><path class="cls-1" d="M16.1,4.46v.72c-.06,.31-.09,.63-.17,.94-.2,.82-.6,1.54-1.1,2.2-.77,1.03-1.7,1.9-2.67,2.74-1.14,.99-2.28,1.97-3.42,2.96-.44,.38-.91,.39-1.33,.03-1.49-1.29-2.98-2.58-4.45-3.89-.76-.67-1.43-1.42-1.99-2.28C-.02,6.35-.29,4.71,.34,2.99,.91,1.43,2.01,.41,3.67,.09c1.72-.33,3.1,.28,4.2,1.61,.06,.07,.12,.15,.19,.24,.07-.09,.13-.16,.19-.24,.64-.78,1.41-1.35,2.41-1.58,1.73-.41,3.57,.31,4.57,1.78,.49,.73,.77,1.53,.86,2.4,0,.06,.02,.11,.03,.17Z"/></g></svg>