<?xml version="1.0" encoding="UTF-8"?><svg xmlns="http://www.w3.org/2000/svg" viewBox="0 0 122.76 40.56"><defs><style>.d{fill:#000032;}</style></defs><g id="a"/><g id="b"><g id="c"><g><g><path class="d" d="M11.91,0h2.79l12.43,27.89h-4.06l-3.7-8.22H7.54l-3.47,8.22H0L11.91,0Zm5.83,16.14L13.27,6.09l-4.15,10.04h8.62Z"/><path class="d" d="M51.62,.16h3.71V27.89h-3.99V6.31l-8.53,10.72h-.73l-8.62-10.72V27.89h-3.97V.16h3.76l9.21,11.39L51.62,.16Z"/><path class="d" d="M69.47,27.89h-9.39V.16h7.27c2.29,0,4.08,.31,5.36,.92s2.26,1.46,2.94,2.54c.67,1.08,1.01,2.33,1.01,3.74,0,2.73-1.41,4.68-4.23,5.86,2.02,.38,3.64,1.22,4.83,2.5,1.2,1.28,1.8,2.82,1.8,4.61,0,1.42-.36,2.68-1.09,3.79s-1.8,2.02-3.21,2.72-3.17,1.05-5.29,1.05Zm-2-24.2h-3.41V12.03h2.64c2.12,0,3.62-.4,4.52-1.21,.89-.81,1.34-1.85,1.34-3.14,0-2.66-1.69-3.99-5.08-3.99Zm.3,11.87h-3.71v8.79h3.91c2.17,0,3.64-.17,4.42-.51s1.4-.86,1.87-1.58,.7-1.48,.7-2.3-.25-1.62-.74-2.32c-.5-.7-1.2-1.22-2.11-1.57-.91-.34-2.36-.52-4.33-.52Z"/><path class="d" d="M82.77,.16h15.72V3.69h-11.75V12.15h11.35v3.55h-11.35v8.61h12.13v3.53h-16.1V.16Z"/><path class="d" d="M104.02,27.89V.16h6.95c2.81,0,5.03,.69,6.68,2.08s2.47,3.27,2.47,5.64c0,1.61-.4,3.01-1.21,4.19-.81,1.18-1.74,2.05-3.24,2.88l7.02,12.94h-4.72l-6.17-12.07s-1.47,0-2.77,0h-1.03v12.07h-3.97Zm5.16-24.36h-1.19V12.29h1.51c2.01,0,3.39-.17,4.14-.52,.75-.34,1.33-.86,1.75-1.56s.63-1.49,.63-2.37-.23-1.66-.69-2.37c-.46-.71-1.11-1.21-1.96-1.5-.84-.29-2.23-.44-4.18-.44Z"/></g><g><path class="d" d="M56.19,33.41v4.2h-1.15v-3.22c0-.64-.09-1.09-.26-1.34-.17-.25-.47-.38-.9-.38-.24,0-.46,.05-.66,.16-.2,.11-.43,.3-.68,.58v4.2h-1.14v-5.78h1.14v.76c.58-.58,1.15-.87,1.71-.87,.73,0,1.3,.35,1.7,1.04,.61-.7,1.25-1.06,1.92-1.06,.56,0,1.02,.21,1.39,.62,.36,.41,.54,1.04,.54,1.88v3.41h-1.14v-3.43c0-.48-.1-.85-.3-1.11-.2-.26-.48-.38-.85-.38-.47,0-.92,.24-1.33,.72Z"/><path class="d" d="M64.31,31.81c.88,0,1.61,.28,2.19,.85,.58,.57,.87,1.28,.87,2.14s-.3,1.53-.89,2.08-1.33,.83-2.23,.83-1.59-.28-2.17-.84c-.58-.56-.87-1.26-.87-2.1s.29-1.55,.88-2.12c.59-.56,1.33-.85,2.22-.85Zm-.06,1.03c-.55,0-1,.18-1.35,.54s-.53,.82-.53,1.38,.18,1.01,.54,1.36c.36,.35,.82,.52,1.39,.52s1.02-.18,1.38-.53c.36-.35,.54-.81,.54-1.36s-.19-1-.56-1.36c-.37-.36-.84-.54-1.41-.54Z"/><path class="d" d="M72.36,31.83h1.24l-2.55,5.88h-.39l-2.61-5.88h1.25l1.56,3.56,1.5-3.56Z"/><path class="d" d="M75.21,29.39c.19,0,.35,.06,.48,.19s.2,.29,.2,.48-.07,.34-.2,.48-.3,.2-.48,.2c-.18,0-.33-.07-.47-.2-.13-.14-.2-.29-.2-.47s.07-.33,.2-.47c.13-.14,.29-.2,.47-.2Zm-.57,2.43h1.14v5.78h-1.14v-5.78Z"/><path class="d" d="M78.75,31.83v.74c.51-.57,1.09-.85,1.74-.85,.36,0,.7,.09,1.01,.28s.55,.44,.71,.77,.24,.84,.24,1.54v3.31h-1.14v-3.29c0-.59-.09-1.01-.27-1.27s-.48-.38-.91-.38c-.54,0-1,.27-1.38,.81v4.13h-1.17v-5.78h1.17Z"/><path class="d" d="M83.92,33.83c0-.62,.23-1.1,.68-1.46,.45-.36,1.07-.54,1.85-.54h2.38v.89h-1.17c.23,.23,.38,.44,.47,.63s.13,.4,.13,.65c0,.3-.09,.6-.26,.89-.17,.29-.39,.51-.66,.67-.27,.15-.71,.28-1.33,.37-.43,.06-.65,.21-.65,.45,0,.13,.08,.24,.24,.33,.16,.09,.45,.18,.88,.27,.71,.15,1.16,.28,1.37,.36s.39,.21,.55,.38c.28,.28,.41,.62,.41,1.04,0,.55-.24,.99-.73,1.31-.49,.33-1.14,.49-1.96,.49s-1.48-.16-1.98-.49c-.49-.33-.74-.77-.74-1.32,0-.78,.48-1.29,1.45-1.52-.39-.25-.58-.49-.58-.74,0-.18,.08-.35,.25-.5s.39-.26,.67-.33c-.85-.38-1.28-.99-1.28-1.83Zm1.88,4.05c-.39,0-.7,.08-.95,.25-.25,.16-.37,.37-.37,.63,0,.59,.54,.89,1.61,.89,.51,0,.9-.07,1.18-.22,.28-.15,.42-.36,.42-.63s-.18-.49-.53-.66c-.35-.17-.81-.25-1.36-.25Zm.27-5.06c-.31,0-.57,.1-.79,.31s-.33,.46-.33,.75,.11,.54,.32,.74c.21,.2,.48,.29,.81,.29s.59-.1,.81-.3,.32-.45,.32-.75-.11-.55-.33-.75-.49-.3-.82-.3Z"/><path class="d" d="M98.36,33.41v4.2h-1.15v-3.22c0-.64-.09-1.09-.26-1.34s-.47-.38-.9-.38c-.24,0-.46,.05-.66,.16s-.43,.3-.68,.58v4.2h-1.14v-5.78h1.14v.76c.58-.58,1.15-.87,1.71-.87,.73,0,1.3,.35,1.7,1.04,.61-.7,1.25-1.06,1.92-1.06,.56,0,1.02,.21,1.39,.62s.54,1.04,.54,1.88v3.41h-1.14v-3.43c0-.48-.1-.85-.3-1.11-.2-.26-.48-.38-.85-.38-.47,0-.92,.24-1.33,.72Z"/><path class="d" d="M107.39,37.61v-.74c-.24,.27-.52,.47-.83,.62s-.62,.22-.93,.22c-.36,0-.7-.09-1.01-.27-.31-.18-.54-.43-.7-.74-.16-.31-.24-.83-.24-1.56v-3.31h1.14v3.3c0,.61,.09,1.03,.26,1.27,.17,.24,.48,.36,.91,.36,.54,0,1.01-.27,1.39-.8v-4.13h1.14v5.78h-1.14Z"/><path class="d" d="M110.03,37.19v-1.23c.32,.23,.65,.41,.99,.55,.34,.14,.62,.21,.85,.21s.44-.06,.62-.18c.17-.12,.26-.26,.26-.42s-.06-.31-.17-.42-.35-.27-.72-.48c-.74-.41-1.22-.76-1.45-1.05-.23-.29-.34-.61-.34-.95,0-.44,.17-.81,.52-1.09,.35-.28,.79-.42,1.34-.42s1.15,.16,1.74,.48v1.13c-.68-.41-1.23-.62-1.67-.62-.22,0-.4,.05-.54,.14-.14,.09-.2,.22-.2,.37,0,.13,.06,.26,.18,.38,.12,.12,.34,.27,.65,.44l.41,.23c.96,.55,1.45,1.15,1.45,1.81,0,.47-.19,.86-.56,1.17-.37,.3-.85,.46-1.43,.46-.34,0-.65-.04-.92-.11-.27-.07-.61-.21-1.01-.41Z"/><path class="d" d="M116.03,29.39c.19,0,.35,.06,.48,.19,.13,.13,.2,.29,.2,.48s-.07,.34-.2,.48c-.13,.13-.3,.2-.48,.2-.18,0-.33-.07-.47-.2-.13-.14-.2-.29-.2-.47s.07-.33,.2-.47c.13-.14,.29-.2,.47-.2Zm-.57,2.43h1.14v5.78h-1.14v-5.78Z"/><path class="d" d="M122.76,36.26v1.13c-.57,.21-1.14,.32-1.68,.32-.91,0-1.63-.27-2.16-.8-.54-.54-.81-1.26-.81-2.16s.26-1.64,.79-2.2c.52-.56,1.21-.84,2.07-.84,.3,0,.56,.03,.8,.08,.24,.06,.53,.16,.88,.32v1.22c-.58-.37-1.11-.55-1.61-.55s-.94,.18-1.27,.54c-.33,.36-.5,.82-.5,1.39,0,.59,.18,1.06,.54,1.41,.36,.35,.84,.52,1.45,.52,.44,0,.94-.13,1.51-.38Z"/></g></g></g></g></svg>