<?xml version="1.0" encoding="UTF-8"?><svg xmlns="http://www.w3.org/2000/svg" viewBox="0 0 22.52 29.05"><defs><style>.d{fill:#000032;}</style></defs><g id="a"/><g id="b"><g id="c"><g><path class="d" d="M21.56,6.05c-1.08,0-2.17,0-3.25,0h-.36v-1.79C17.95,1.77,16.18,0,13.69,0,12.07,0,10.45,0,8.82,0c-2.48,0-4.25,1.77-4.25,4.26v1.78c-1.23,0-2.41,0-3.58,0-.67,0-.99,.3-.99,.96,0,7.02,0,14.04,0,21.06,0,.67,.31,.98,.97,.98,6.86,0,13.72,0,20.58,0,.64,0,.97-.31,.97-.96,0-7.03,0-14.06,0-21.09,0-.65-.31-.96-.96-.96Zm-4.44,6.85c.35,0,.65,.28,.65,.64,0,.36-.27,.65-.62,.67-.36,.01-.67-.29-.67-.65,0-.35,.29-.64,.64-.65ZM6.22,3.97c.05-1.27,1.07-2.3,2.34-2.32,1.8-.02,3.61-.02,5.41,0,1.25,.02,2.28,1.04,2.33,2.29,.03,.69,0,1.37,0,2.09H6.24c-.01-.06-.03-.12-.03-.18,0-.63-.02-1.25,0-1.88Zm-.82,8.76c.45,0,.81,.37,.8,.81,0,.45-.36,.8-.81,.8-.45,0-.81-.35-.82-.79,0-.45,.37-.83,.82-.82Zm15.46,14.65H1.65V7.69h2.89c0,.1,.02,.19,.02,.28,0,1,0,2,0,2.99,0,.19-.04,.3-.23,.38-1.07,.51-1.61,1.65-1.35,2.78,.27,1.11,1.25,1.88,2.39,1.88,1.17,0,2.14-.78,2.4-1.94,.24-1.07-.29-2.2-1.3-2.69-.24-.12-.29-.25-.29-.48,.01-.95,0-1.89,0-2.84v-.37h10.09c0,.1,.02,.19,.02,.27,0,1.06,0,2.12,0,3.19,0,.18-.04,.28-.21,.37-.99,.52-1.46,1.58-1.18,2.63,.27,1.02,1.24,1.74,2.27,1.7,1.1-.04,1.99-.81,2.2-1.91,.18-.94-.31-1.95-1.19-2.4-.21-.11-.26-.23-.26-.44,0-1.1,0-2.21,0-3.31,0-.02,0-.04,.02-.09h2.89V27.39Z"/><path class="d" d="M5.39,14.35c-.45,0-.81-.35-.82-.79,0-.46,.37-.83,.83-.82,.45,0,.8,.37,.8,.81,0,.45-.36,.8-.81,.8Z"/><path class="d" d="M17.77,13.53c0,.36-.27,.65-.62,.67-.36,.01-.67-.29-.67-.65,0-.35,.29-.64,.64-.65,.35,0,.64,.28,.65,.64Z"/></g></g></g></svg>