<?xml version="1.0" encoding="UTF-8"?><svg xmlns="http://www.w3.org/2000/svg" viewBox="0 0 51.91 73.81"><g id="a"/><g id="b"><g id="c"><g><path d="M51.37,20.54c-.83-3.93-2.47-7.5-4.96-10.66-3.53-4.46-8.01-7.52-13.51-9.03-1.24-.34-2.51-.57-3.77-.84h-6.34c-.16,.05-.31,.12-.47,.14C15.66,1.11,10.14,4.18,5.92,9.37,.32,16.24-1.13,24.1,.82,32.66c1.43,6.28,4.16,12.03,7.4,17.54,4.31,7.35,9.41,14.13,14.99,20.54,.87,1.01,1.8,1.97,2.79,3.06,.16-.23,.24-.38,.35-.5,7.61-8.28,14.33-17.22,19.59-27.18,2.48-4.7,4.44-9.61,5.43-14.86,.67-3.57,.75-7.15,0-10.72Zm-4.73,12.31c-1.18,4.63-3.15,8.94-5.45,13.11-4.18,7.57-9.32,14.47-14.9,21.05-.09,.11-.15,.24-.35,.55-2.58-3.32-5.06-6.41-7.42-9.58-4.09-5.47-7.7-11.24-10.51-17.47-1.9-4.22-3.33-8.58-3.67-13.23-.35-4.93,.87-9.48,3.65-13.56,3.31-4.85,7.87-7.94,13.64-9.13,11.31-2.33,22.47,4.69,25.35,15.89,1.07,4.16,.71,8.27-.33,12.37Z"/><path d="M25.9,8.36c-9.62,.05-17.44,7.92-17.4,17.5,.04,9.63,7.89,17.47,17.46,17.45,9.62-.03,17.43-7.86,17.44-17.47,0-9.63-7.9-17.53-17.5-17.48Zm.04,30.67c-7.24,0-13.2-5.97-13.19-13.2,0-7.26,5.94-13.18,13.2-13.17,7.27,0,13.2,5.93,13.18,13.18-.01,7.26-5.95,13.19-13.2,13.19Z"/></g></g></g></svg>