<?xml version="1.0" encoding="UTF-8"?><svg xmlns="http://www.w3.org/2000/svg" viewBox="0 0 30.06 30.05"><defs><style>.d{fill:#060606;stroke:#060606;stroke-miterlimit:10;}</style></defs><g id="a"/><g id="b"><g id="c"><path class="d" d="M29.15,28.23c-3.11-3.12-6.23-6.24-9.35-9.35-.08-.08-.19-.13-.28-.18,.22-.27,.39-.45,.52-.65,.42-.65,.87-1.27,1.2-1.95,.99-2.02,1.29-4.15,.94-6.37-.31-1.98-1.1-3.75-2.39-5.28-1.57-1.87-3.55-3.1-5.93-3.65-.57-.13-1.16-.2-1.73-.29h-1.48c-.1,.02-.2,.04-.3,.05-1.14,.12-2.25,.39-3.3,.86-1.88,.84-3.43,2.1-4.6,3.79-1.08,1.55-1.7,3.28-1.89,5.16-.18,1.74,.08,3.43,.72,5.06,.7,1.78,1.8,3.28,3.29,4.47,1.55,1.25,3.32,2.03,5.31,2.31,2.32,.32,4.53-.04,6.59-1.15,.77-.42,1.47-.94,2.26-1.46,.03,.04,.09,.14,.17,.22,3.14,3.14,6.27,6.27,9.41,9.41,.5,.5,.94,.44,1.25-.17v-.28c-.14-.18-.25-.38-.41-.53Zm-17.74-7.22c-5.33,0-9.63-4.34-9.61-9.62C1.82,6.09,6.12,1.8,11.41,1.8c5.3,.02,9.62,4.27,9.61,9.62-.01,5.37-4.35,9.6-9.61,9.6Z"/></g></g></svg>